<svg xmlns="http://www.w3.org/2000/svg" viewBox="0 0 128 85"><g id="Camada_2" data-name="Camada 2"><g id="Camada_1-2" data-name="Camada 1"><path d="M119.94,0H49.06A8,8,0,0,0,41,7.88V19H15.33a7.41,7.41,0,0,0-6,3.68L1.9,37.16A20.21,20.21,0,0,0,0,45V66.84A4.12,4.12,0,0,0,4.09,71h5c0,.33-.05.66-.05,1a13,13,0,0,0,26,0c0-.34,0-.67,0-1h56.1c0,.33,0,.66,0,1a13,13,0,0,0,26,0c0-.34,0-.67,0-1h11V7.88A8,8,0,0,0,119.94,0ZM67,41V4H85V41ZM49.06,4H63V41H45V7.88A4,4,0,0,1,49.06,4ZM33,23l-.06,16a2.07,2.07,0,0,1-2.11,2h0L24.5,41V23ZM12.9,24.52A3.57,3.57,0,0,1,15.33,23H20.5V41l-15.79,0A12,12,0,0,1,5.45,39ZM22,81a9,9,0,1,1,9-9A9,9,0,0,1,22,81ZM34,67a13,13,0,0,0-24,0H4.09S4,67,4,66.84V56H27a2,2,0,0,0,0-4H4V44.93L30.8,45h0a6.07,6.07,0,0,0,6.11-6L37,23h4V67Zm70,14a9,9,0,1,1,9-9A9,9,0,0,1,104,81Zm12-14a13,13,0,0,0-24,0H45V45h60a2,2,0,0,0,0-4H89V4h30.94A4,4,0,0,1,124,7.88V41h-3a2,2,0,0,0,0,4h3V67Z"/></g></g></svg>